# xmcd
#
# Track frame offsets:
#	150
#	54590
#	76695
#	92977
#	131887
#	185595
#	203820
#	233745
#
# Disc length: 3527 seconds
#
# Revision: 0
# Processed by: cddbd v1.4PL0 Copyright (c) Steve Scherf et al.
# Submitted via: EasyCDDAExtractor 4.6.9.1
#
DISCID=680dc508
DTITLE=Elvin Jones - Going Home
DYEAR=1900
DGENRE=Blues
TTITLE0=The Shell Game
TTITLE1=Going Home
TTITLE2=Cross Purpose
TTITLE3=You've Changed
TTITLE4=Truth
TTITLE5=East Of The Sun
TTITLE6=In 3/4 Thee
TTITLE7=April 8th
EXTD=
EXTT0=
EXTT1=
EXTT2=
EXTT3=
EXTT4=
EXTT5=
EXTT6=
EXTT7=
PLAYORDER=
